<svg xmlns="http://www.w3.org/2000/svg" viewBox="0 0 110.67 103.84"><defs><style>.cls-1{fill:#026865;}.cls-2{fill:#06bc3a;}</style></defs><title>Asset 10</title><g id="Layer_2" data-name="Layer 2"><g id="Layer_1-2" data-name="Layer 1"><path class="cls-1" d="M66.43,44.59c-3.19,2.83.81,6.85,2.44,9.6a2.48,2.48,0,0,0,1.06,1.13c1.4.55,4.5-1.56,5.73-2.19.84-.43,5-2.7,4.55-3.75a1.5,1.5,0,0,0-.65-.62q-3.69-2.25-7.46-4.37c-2.41-1.34-3.53-1.68-5.67.2"/><path class="cls-1" d="M51.51,10.2a3.37,3.37,0,0,1-2.74,3.18c-1.8.53-3.19.31-4.19-1.37-1.12-1.87-2.21-3.76-3.29-5.65C38.9,2.2,45.37,1.25,48.07,1.6c4.69.6,3.86,5.08,3.44,8.6"/><path class="cls-1" d="M34.32,40c-1.84,1.81-4.89,3-7.08,4.32a5.28,5.28,0,0,1-1.63.72c-2.66.51-2-3.45-2-5s-.45-5,.89-6c2.44-1.89,10.61-1.62,11.28,2.15a4.37,4.37,0,0,1-1.28,3.68l-.15.16"/><path class="cls-1" d="M78.35,33.43c-1.34.08-2.61.25-3.43.3-2.42.16-3.81,1.44-3.94,3.91-.07,1.34,6.56,6.27,8.27,6.21,1.46-.05,3.19-3.24,3.83-4.28.88-1.42,2.22-3.72.78-5.19-1-1-3.36-1.09-5.51-1"/><path class="cls-1" d="M41.19,15.94c-.28-2.71-3.79-6.49-4.64-9.52-1-3.7-7.43,4.95-10.35,6.79,3.15,2,5.56,3.78,8.2,5.11,3.09,1.56,7.05.09,6.79-2.38"/><path class="cls-1" d="M83.26,24.86C83,27.22,82.63,30,79.7,29.62c-1.9-.22-4.16.61-5.93.16-2-.5-3-4.21-1.94-5.81a6.69,6.69,0,0,1,1.7-1.61c1.65-1.21,5.78-5,8-4.49,2.45.58,2,4.43,1.83,6.25,0,.24,0,.49-.08.74"/><path class="cls-1" d="M62.55,51.05c-1.6-1.77-3.57-2.64-6-.82a3.83,3.83,0,0,0-1.39,3.84c.13,1.31.25,2.62.38,3.92.1,1.11.33,2.12,1.52,2.52a8.88,8.88,0,0,0,2.42.23c2.56.12,9.74,1.85,7-3.15-1-1.77-2.26-4.66-4-6.54"/><path class="cls-1" d="M77.3,14.48c0,1.77-2.49,2.27-3.71,2.95-1.63.91-3.16,2.48-5.19,2.07-3.3-.66-3.94-4.06-2.54-6.62,1.1-2,4-8.3,7.06-7.13,2.33.9,2.89,5,3.85,7a4.25,4.25,0,0,1,.53,1.61v.11"/><path class="cls-1" d="M34.3,28.62a3.73,3.73,0,0,0,.82-.86,3.45,3.45,0,0,0-.47-4.71,17,17,0,0,0-5.18-3.35c-2.5-.85-3.17,0-4.41,2L22,26.85A3.76,3.76,0,0,0,21.46,28c-.22,1.09.6,1.4,1.54,1.45l3,.16c2.44.13,6.19.69,8.33-1"/><path class="cls-1" d="M67.12,5.6c.1,1-1.41,2.17-2,2.88-1,1.28-1.9,2.64-2.84,4a1.78,1.78,0,0,1-.61.61,1.53,1.53,0,0,1-.74.13c-2.22,0-5.29-.1-5.49-2.95a52.89,52.89,0,0,1,0-8.06c.14-1.74.53-2.58,2.23-2,2.64.93,9.1,2.21,9.41,5.41"/><path class="cls-1" d="M48.66,49.47A5.57,5.57,0,0,0,46.3,49a2.18,2.18,0,0,0-.76.55,23.23,23.23,0,0,0-3.36,4.23A6.9,6.9,0,0,0,41,56.71c-.37,3.75,5.22,4.4,7.65,5.74,4.27,2.36,3.56-7.64,3.12-9.84-.38-1.87-1.44-2.59-3.14-3.14"/><path class="cls-1" d="M39.72,51c-1.43,2.44-2.58,5.38-4.49,7.48-1.78-1.18-3.3-4.67-4.3-6.59-.8-1.5-1.61-3.65-.12-5a7.17,7.17,0,0,1,1.77-1.06c3.14-1.54,6-4.24,8.77-.39,1.46,2-.46,3.58-1.44,5.24-.07.11-.13.22-.19.33"/><polygon class="cls-2" points="2.3 86.03 2.3 73.29 0 73.29 0 69.63 2.3 69.63 2.3 65.01 6.9 65.01 6.9 69.63 12.07 69.63 12.07 73.29 6.9 73.29 6.9 86.03 2.3 86.03"/><path class="cls-2" d="M13.09,86v-9.5c0-4.9,2.14-6.9,7.68-6.9H23.7v3.66H20.89c-2.51,0-3.3.67-3.3,3.27V86Z"/><path class="cls-2" d="M26.89,86c-4.72,0-6-1.67-6-4.33V80.16c0-2.75,1.15-4.33,5.69-4.33H38.72v-.36c0-2.09-.79-2.63-2.79-2.63H31.46V69.63h4.47c5.24,0,7.29,1.88,7.29,6.05v4c0,4.75-1.66,6.36-7.47,6.36Zm11.83-7.41H27.07c-1.06,0-1.69.36-1.69,1.66V81.4c0,1.15.69,1.54,1.84,1.54h8.47c2.12,0,3-.48,3-2.93Z"/><path class="cls-2" d="M52.77,85.65c-6.08,0-7.87-1.88-7.87-7.08V76.36c0-5.23,1.79-7.1,7.87-7.1H64.62v3.87H52.92c-2.85,0-3.51.69-3.51,3.38v1.94c0,2.6.69,3.39,3.51,3.39H64.65v3.81Zm-.16,6.65.67-5.87h4.08L55.73,92.3Z"/><path class="cls-2" d="M75.05,86.06c-6.08,0-7.86-1.88-7.86-7.08V76.77c0-5.23,1.78-7.11,7.86-7.11h5.48c6.11,0,7.89,1.88,7.89,7.14V79c0,5.2-1.78,7.08-7.89,7.08Zm8.86-9.14c0-2.78-.72-3.38-4-3.38H75.66c-3.21,0-4,.6-4,3.38v1.94c0,2.72.75,3.39,4,3.39h4.26c3.27,0,4-.67,4-3.39Z"/><path class="cls-2" d="M110.67,81.73c0,3.24-.93,4.36-5.53,4.36H91.05V82.55h13.51c1.21,0,1.64-.34,1.64-1.45v-.55c0-1.21-.43-1.36-1.51-1.36h-9.2c-3.72,0-4.41-1.45-4.41-4.32V73.63c0-2.85,1-3.94,4.56-3.94h6.23v3.42H96.73c-.88,0-1.24.27-1.24,1.12V75c0,.9.36,1.18,1.15,1.18h8.89c4.21,0,5.14,1.27,5.14,4.71Z"/><path class="cls-2" d="M59.18,99a2.19,2.19,0,0,1-1-.64,1.6,1.6,0,0,1-.32-1,1.44,1.44,0,0,1,.33-.94,4.2,4.2,0,0,1,1.14-.88,3.15,3.15,0,0,1-1-1.23,4.08,4.08,0,0,1-.35-1.73A3.68,3.68,0,0,1,59,89.77a4.14,4.14,0,0,1,3-1,4.73,4.73,0,0,1,1.4.2,3.84,3.84,0,0,1,1.17.61,4.43,4.43,0,0,1,1-.73,2.21,2.21,0,0,1,1-.23h.28V90H66.5a3.48,3.48,0,0,0-.84.08.83.83,0,0,0-.43.26,3.26,3.26,0,0,1,.46,1,4.35,4.35,0,0,1,.15,1.19,3.65,3.65,0,0,1-1.07,2.76,4,4,0,0,1-2.87,1,5.49,5.49,0,0,1-.8-.06,7.65,7.65,0,0,1-.83-.18,1.63,1.63,0,0,0-.68.43.78.78,0,0,0-.24.55c0,.47.69.75,2.07.85.44,0,.79.05,1.06.08a7.46,7.46,0,0,1,3.39.87,2.38,2.38,0,0,1,.91,2.06,2.41,2.41,0,0,1-1.26,2.2,7.29,7.29,0,0,1-3.67.75,6.68,6.68,0,0,1-3.37-.67,2.17,2.17,0,0,1-1.12-2,1.92,1.92,0,0,1,.43-1.29,3.31,3.31,0,0,1,1.39-.9m-.36,2a1.34,1.34,0,0,0,.77,1.24,4.91,4.91,0,0,0,2.24.41,6.41,6.41,0,0,0,2.61-.4,1.31,1.31,0,0,0,.85-1.25,1.26,1.26,0,0,0-.85-1.2,6.5,6.5,0,0,0-2.64-.4,4.7,4.7,0,0,0-2.2.42,1.29,1.29,0,0,0-.78,1.18m.55-8.52A2.7,2.7,0,0,0,60,94.37a2.51,2.51,0,0,0,4.38-1.82,2.55,2.55,0,0,0-.69-1.89,2.52,2.52,0,0,0-1.89-.7,2.31,2.31,0,0,0-2.46,2.47"/><path class="cls-2" d="M75.45,96.81l1.11.69a4.45,4.45,0,0,1-1.71,1.93,5.17,5.17,0,0,1-2.65.63,3.9,3.9,0,0,1-3.26-1.45,8.29,8.29,0,0,1,0-8.34,4.07,4.07,0,0,1,6.26-.06,6.54,6.54,0,0,1,1.11,4.05v.46H69.37v.35a4.13,4.13,0,0,0,.82,2.69,2.61,2.61,0,0,0,2.15,1,3.39,3.39,0,0,0,1.83-.5,3.63,3.63,0,0,0,1.28-1.45m-6-3.39h5.31A4,4,0,0,0,74,91a2.3,2.3,0,0,0-1.89-.9,2.35,2.35,0,0,0-1.93.88,4.16,4.16,0,0,0-.77,2.48"/><path class="cls-2" d="M77.45,98l1.22-1a4.47,4.47,0,0,0,1.41,1.32,3.31,3.31,0,0,0,1.69.44,2.43,2.43,0,0,0,1.6-.5A1.66,1.66,0,0,0,84,97c0-.83-.83-1.48-2.49-2l-.87-.25a4.64,4.64,0,0,1-2.07-1.16,2.61,2.61,0,0,1-.68-1.83,2.77,2.77,0,0,1,.92-2.15,3.36,3.36,0,0,1,2.37-.83,5.09,5.09,0,0,1,2.18.45,4.9,4.9,0,0,1,1.75,1.37l-1,1a4.5,4.5,0,0,0-1.32-1.18A3.1,3.1,0,0,0,81.23,90a2,2,0,0,0-1.34.43,1.48,1.48,0,0,0-.5,1.16,1.55,1.55,0,0,0,.14.65,1.2,1.2,0,0,0,.41.48,6.09,6.09,0,0,0,1.87.72l1,.3a4.27,4.27,0,0,1,2,1.17,2.72,2.72,0,0,1,.63,1.86,2.92,2.92,0,0,1-1.06,2.37,4.22,4.22,0,0,1-2.84.9,5.29,5.29,0,0,1-2.37-.54A4.63,4.63,0,0,1,77.45,98"/><path class="cls-2" d="M92.17,98.56v1.27a4.1,4.1,0,0,1-.73.17,5.89,5.89,0,0,1-.88.06,2.83,2.83,0,0,1-1.86-.53,2,2,0,0,1-.63-1.59V90.25H86.45V89h1.62V85.44h1.59V89h2.49v1.29H89.66v7a1.68,1.68,0,0,0,.3,1.21,1.72,1.72,0,0,0,1.14.27,4.47,4.47,0,0,0,1-.15Z"/><path class="cls-2" d="M65.89,30.78A13.8,13.8,0,0,1,52.61,44.56a13.74,13.74,0,0,1-13.15-8.33,14.36,14.36,0,0,1-1.12-5.45,14.21,14.21,0,0,1,1.12-5.45A13.78,13.78,0,0,1,52.61,17,13.82,13.82,0,0,1,65.89,30.78m0,0a13.28,13.28,0,0,0-1-5.06A12.71,12.71,0,0,0,52.61,18a12.79,12.79,0,0,0,0,25.55,12.75,12.75,0,0,0,12.23-7.71,13.37,13.37,0,0,0,1-5.07"/><path class="cls-2" d="M62.15,30.54a9.6,9.6,0,1,1-2.68-6.66,9.61,9.61,0,0,1,2.68,6.66m0,0a9.08,9.08,0,0,0-9.34-9.1,9.1,9.1,0,0,0,0,18.19,9.07,9.07,0,0,0,9.34-9.09"/><path class="cls-2" d="M59.41,30.78a6.85,6.85,0,0,1-6.6,6.85,6.85,6.85,0,1,1,0-13.7,6.85,6.85,0,0,1,6.6,6.85m0,0a6.35,6.35,0,0,0-11-4.36,6.36,6.36,0,0,0,4.37,10.72,6.35,6.35,0,0,0,6.6-6.36"/></g></g></svg>