<svg xmlns="http://www.w3.org/2000/svg" viewBox="0 0 77.7 92.92"><defs><style>.cls-1{fill:#fff;}</style></defs><title>Asset 8</title><g id="Layer_2" data-name="Layer 2"><g id="Layer_1-2" data-name="Layer 1"><path class="cls-1" d="M53.15,44.93A3.43,3.43,0,0,0,52,47.11a4.84,4.84,0,0,0,.56,2.44,30.57,30.57,0,0,0,2.84,4.19c.51.69.89,1.57,1.53,1.63a4.4,4.4,0,0,0,2.19-.63c.74-.36,1.46-.79,2.19-1.22s1.5-.82,2.2-1.26a20,20,0,0,0,2.07-1.36,5.52,5.52,0,0,0,.81-.78.74.74,0,0,0,.13-.24s-.07-.15-.2-.25l-4.25-2.72C60.62,46,59.22,45,57.74,44.23a3.81,3.81,0,0,0-2.41-.55,5,5,0,0,0-2.18,1.25m0,0a5.07,5.07,0,0,1,2.17-1.29,4,4,0,0,1,2.48.47c1.55.72,3,1.58,4.52,2.37s3,1.57,4.51,2.46a1.25,1.25,0,0,1,.54.74,1.22,1.22,0,0,1-.23,1,5,5,0,0,1-1,1A20.08,20.08,0,0,1,64,53.12c-.74.45-1.52.81-2.23,1.23s-1.51.82-2.31,1.17a7.2,7.2,0,0,1-1.26.44,3.09,3.09,0,0,1-1.43.08,1.94,1.94,0,0,1-1.16-.91L55,54a32.8,32.8,0,0,1-2.56-4.42A5.11,5.11,0,0,1,52,47.11a3.41,3.41,0,0,1,1.2-2.18"/><path class="cls-1" d="M38.23,10.53a3.74,3.74,0,0,1-.84,2.12,4.19,4.19,0,0,1-2,1.16,4.55,4.55,0,0,1-2.35.2,3.29,3.29,0,0,1-1.91-1.46l-2.5-3.91c-.39-.68-.82-1.27-1.2-2A3,3,0,0,1,27.21,4a3.71,3.71,0,0,1,1.95-1.73A10.12,10.12,0,0,1,36.24,2,3.75,3.75,0,0,1,38,3.64a5.24,5.24,0,0,1,.58,2.28,27.39,27.39,0,0,1-.37,4.61m0,0a21.52,21.52,0,0,0,.23-4.6,4.9,4.9,0,0,0-.71-2.13,3.27,3.27,0,0,0-1.7-1.29,9.09,9.09,0,0,0-4.4,0,9.61,9.61,0,0,0-2.09.66,2.8,2.8,0,0,0-1.44,1.27c-.53,1.1.6,2.46,1.27,3.82l2.17,4.08a2.89,2.89,0,0,0,1.58,1.42,4.19,4.19,0,0,0,2.22,0,4,4,0,0,0,2-1,3.72,3.72,0,0,0,.87-2.1"/><path class="cls-1" d="M21,40.35a19.19,19.19,0,0,1-4.1,2.8q-1.1.6-2.16,1.23a10.82,10.82,0,0,1-2.23,1.22,3.86,3.86,0,0,1-.68.11,2.1,2.1,0,0,1-.73-.14,1.88,1.88,0,0,1-1-1.09,7.54,7.54,0,0,1-.36-2.59V40.65c0-.38,0-.79-.06-1.21a21.56,21.56,0,0,1,0-2.55,4.73,4.73,0,0,1,.85-2.62,5,5,0,0,1,2.47-1.17,12.64,12.64,0,0,1,5.09.07,8.35,8.35,0,0,1,2.39.86,4,4,0,0,1,1.77,1.77,3.5,3.5,0,0,1,.05,2.47A5,5,0,0,1,21,40.35m0,0a5,5,0,0,0,1.29-2.09,3.42,3.42,0,0,0-.14-2.4,3.73,3.73,0,0,0-1.8-1.55,8.16,8.16,0,0,0-2.33-.65,12.49,12.49,0,0,0-4.8.28,4.53,4.53,0,0,0-1.94,1A4,4,0,0,0,10.74,37a19.54,19.54,0,0,0,0,2.42,21.07,21.07,0,0,1-.05,2.52,7.5,7.5,0,0,0,.14,2.34,1.24,1.24,0,0,0,.57.78,1.43,1.43,0,0,0,.47.14,5.29,5.29,0,0,0,.56-.05,11.29,11.29,0,0,0,2.2-1L16.87,43A16.5,16.5,0,0,0,21,40.35"/><path class="cls-1" d="M65.07,33.76,62.73,34a14.67,14.67,0,0,0-2.3.35,3.35,3.35,0,0,0-1.82,1.29A4,4,0,0,0,58,37.74,1.22,1.22,0,0,0,58,38a1.77,1.77,0,0,0,.06.17,2,2,0,0,0,.3.43,6.59,6.59,0,0,0,.78.81c.56.51,1.18,1,1.8,1.44a26,26,0,0,0,3.88,2.44,5.07,5.07,0,0,0,1,.36.83.83,0,0,0,.75-.19A6.76,6.76,0,0,0,68,41.92c.46-.61.89-1.25,1.31-1.91a16.32,16.32,0,0,0,1.2-2A3.79,3.79,0,0,0,71,35.89a2.11,2.11,0,0,0-1.33-1.67,10.84,10.84,0,0,0-4.61-.46m0,0a20.43,20.43,0,0,1,2.35-.06,7.68,7.68,0,0,1,2.32.39,2.38,2.38,0,0,1,1.58,1.74,4.18,4.18,0,0,1-.33,2.4,16.91,16.91,0,0,1-1.06,2.13c-.38.69-.76,1.39-1.21,2.06a7.11,7.11,0,0,1-1.67,1.86,2.53,2.53,0,0,1-.66.32l-.41.07-.39,0a5.23,5.23,0,0,1-1.23-.43,21.3,21.3,0,0,1-4-2.67,19.19,19.19,0,0,1-1.75-1.63,8.11,8.11,0,0,1-.78-.94,3.29,3.29,0,0,1-.32-.56,1.59,1.59,0,0,1-.08-.39,3,3,0,0,1,0-.32,4.31,4.31,0,0,1,.89-2.25,3.71,3.71,0,0,1,2-1.24A14.31,14.31,0,0,1,62.73,34Z"/><path class="cls-1" d="M27.91,16.27c-.33-2-1.61-3.7-2.68-5.4a29,29,0,0,1-1.59-2.62A10.2,10.2,0,0,1,23,6.81c-.15-.45-.42-.73-.8-.67a5.78,5.78,0,0,0-2.35,1.52c-.74.67-1.45,1.37-2.16,2.1A33.26,33.26,0,0,1,13.17,14v-.81c1.27.84,2.52,1.71,3.75,2.59s2.47,1.73,3.78,2.48a6.06,6.06,0,0,0,4.27.92A4.37,4.37,0,0,0,27,18.25a2.29,2.29,0,0,0,.89-2m0,0a2.34,2.34,0,0,1-.87,2,4.65,4.65,0,0,1-2.05.95,6.61,6.61,0,0,1-4.48-.67c-2.74-1.36-5.27-3-7.85-4.61L12,13.57l.63-.43a16.4,16.4,0,0,0,2.22-1.93l2.17-2.13c.74-.7,1.49-1.4,2.3-2a11.73,11.73,0,0,1,1.28-.9,3.46,3.46,0,0,1,1.56-.59,1.17,1.17,0,0,1,.91.35,1.77,1.77,0,0,1,.41.79A9.27,9.27,0,0,0,24,8.08a28.53,28.53,0,0,0,1.39,2.69c.5.88,1,1.75,1.5,2.66a8.51,8.51,0,0,1,1,2.84"/><path class="cls-1" d="M70,25.19a15.25,15.25,0,0,1-.39,2.42,3.38,3.38,0,0,1-1.28,2.06,4,4,0,0,1-2.41.4,16.67,16.67,0,0,0-2.41.29,10.84,10.84,0,0,1-2.51.19,2.9,2.9,0,0,1-1.32-.39,3.46,3.46,0,0,1-1-.95,5.84,5.84,0,0,1-1-2.45,4.22,4.22,0,0,1,.42-2.71A7.27,7.27,0,0,1,60,22.26L62,20.79a19.24,19.24,0,0,1,4.27-2.53,3.06,3.06,0,0,1,2.53,0,2.46,2.46,0,0,1,.91.9,4.18,4.18,0,0,1,.43,1.18A16,16,0,0,1,70,25.19m0,0a13.86,13.86,0,0,0,0-4.85,2.62,2.62,0,0,0-1.34-1.83,2.71,2.71,0,0,0-2.2.21,19.86,19.86,0,0,0-3.93,2.75c-.63.51-1.24,1.05-1.9,1.56A6.47,6.47,0,0,0,59,24.59a3.32,3.32,0,0,0-.31,2,5.11,5.11,0,0,0,.72,2.09c.7,1.4,2.47,1.28,4.06,1.14a18.42,18.42,0,0,1,2.47-.1c.43,0,.82.11,1.21.09a2.33,2.33,0,0,0,1.13-.3,3.18,3.18,0,0,0,1.31-1.95A15.22,15.22,0,0,0,70,25.19"/><path class="cls-1" d="M49.27,51.38a6.31,6.31,0,0,0-1.9-1.47A3.32,3.32,0,0,0,45,49.74,3.88,3.88,0,0,0,42.15,53a12,12,0,0,0,.2,2.35l.32,2.41a4.41,4.41,0,0,0,.54,2.07,2.29,2.29,0,0,0,1.81.68,20.66,20.66,0,0,1,2.44.16c.8.1,1.59.22,2.38.29a9.49,9.49,0,0,0,2.32,0,2.21,2.21,0,0,0,1-.35,1.06,1.06,0,0,0,.44-.83,4.75,4.75,0,0,0-.69-2.18c-.35-.73-.68-1.47-1-2.19a18.84,18.84,0,0,0-2.59-4.07m0,0a23.37,23.37,0,0,1,2.72,4l1.19,2.1a5.14,5.14,0,0,1,.91,2.34,1.66,1.66,0,0,1-.56,1.29,3,3,0,0,1-1.23.56,9.74,9.74,0,0,1-2.51.17c-.83,0-1.64-.11-2.44-.19A20.52,20.52,0,0,0,45,61.53a4.89,4.89,0,0,1-1.32-.23,2.51,2.51,0,0,1-1.2-.87,4.87,4.87,0,0,1-.63-2.56l-.14-2.42a12.07,12.07,0,0,1,0-2.48,3.54,3.54,0,0,1,1.17-2.22A5.69,5.69,0,0,1,45,49.6a3.43,3.43,0,0,1,2.38.28,6.12,6.12,0,0,1,1.89,1.5"/><path class="cls-1" d="M64,14.81a2.3,2.3,0,0,1-1.41,1.91c-.73.41-1.52.69-2.24,1.09s-1.36,1-2.06,1.4a5,5,0,0,1-2.4.93,4.63,4.63,0,0,1-2.56-.66,4.13,4.13,0,0,1-1.67-2.12,5.39,5.39,0,0,1-.15-2.7,8.92,8.92,0,0,1,1-2.42A25.58,25.58,0,0,1,55.22,8a7.56,7.56,0,0,1,1.92-1.77,2.74,2.74,0,0,1,2.64-.32,4,4,0,0,1,1.79,1.87,13.65,13.65,0,0,1,.91,2.34c.26.79.47,1.6.76,2.38A7,7,0,0,1,64,14.81m0,0a7.08,7.08,0,0,0-.81-2.34c-.31-.77-.57-1.56-.86-2.34A12.3,12.3,0,0,0,61.3,7.9a3.6,3.6,0,0,0-1.71-1.57,2.17,2.17,0,0,0-2.07.43A7.65,7.65,0,0,0,55.9,8.49a33.19,33.19,0,0,0-2.49,4.22,8,8,0,0,0-.94,2.15,4.71,4.71,0,0,0,0,2.24,3.44,3.44,0,0,0,1.23,1.81,4,4,0,0,0,2.16.73c1.59,0,3-1.2,4.41-2,.75-.37,1.56-.6,2.29-1A2.29,2.29,0,0,0,64,14.81"/><path class="cls-1" d="M21,29a3.68,3.68,0,0,0,1.18-4.38,4.91,4.91,0,0,0-1.69-1.7c-.65-.49-1.32-1-2-1.39a10.68,10.68,0,0,0-2.16-1,4.29,4.29,0,0,0-2.19-.28c-.63.13-1.08.73-1.51,1.4s-.83,1.39-1.25,2.1L8.82,27.84a1.75,1.75,0,0,0-.28.93c0,.26.18.43.52.55a4.7,4.7,0,0,0,1.14.18l1.22.11c1.64.12,3.28.38,4.91.45A7.47,7.47,0,0,0,21,29m0,0a8,8,0,0,1-4.69,1.25c-1.66,0-3.29-.09-4.93-.09H10.16A5.47,5.47,0,0,1,8.86,30a1.62,1.62,0,0,1-.69-.35,1.29,1.29,0,0,1-.4-.76,2.41,2.41,0,0,1,.28-1.43c.81-1.49,1.64-2.86,2.48-4.29.44-.7.84-1.4,1.31-2.11a5.67,5.67,0,0,1,.84-1A2.56,2.56,0,0,1,14,19.33a4.86,4.86,0,0,1,2.61.48,11.59,11.59,0,0,1,2.2,1.25,24.46,24.46,0,0,1,1.93,1.57c.31.28.62.53.92.83a3.6,3.6,0,0,1,.69,1.05A3.85,3.85,0,0,1,21,29"/><path class="cls-1" d="M53.84,5.93a1.85,1.85,0,0,1-.43,1.16,10.66,10.66,0,0,1-.82,1,12.4,12.4,0,0,0-1.52,2l-1.39,2.09c-.24.35-.44.7-.71,1.06a1.38,1.38,0,0,1-.58.45,2.2,2.2,0,0,1-.69.11,13.12,13.12,0,0,1-2.58,0,4.24,4.24,0,0,1-2.49-1.07,3.75,3.75,0,0,1-1-2.6c0-.84-.1-1.69-.12-2.53a39.24,39.24,0,0,1,.21-5.08A5.35,5.35,0,0,1,42,1.11a1.83,1.83,0,0,1,.38-.67A1.32,1.32,0,0,1,43.15,0a2.71,2.71,0,0,1,1.4.23c.39.15.78.29,1.18.42a42.78,42.78,0,0,1,4.71,1.82,10.07,10.07,0,0,1,2.14,1.33,3.23,3.23,0,0,1,1.26,2.11m0,0a3.22,3.22,0,0,0-1.28-2.08,9.19,9.19,0,0,0-2.18-1.23,35.53,35.53,0,0,0-4.8-1.47C44.78,1,43.89.55,43.3.7s-.62,1-.67,1.81c-.1,1.65-.12,3.32-.07,5,0,.83,0,1.66.08,2.49a5.52,5.52,0,0,0,.13,1.15,2,2,0,0,0,.48.91,3.57,3.57,0,0,0,2,1,14.13,14.13,0,0,0,2.45.23,1.08,1.08,0,0,0,1-.33c.25-.3.51-.66.77-1L51,10A14.29,14.29,0,0,1,52.57,8a9.29,9.29,0,0,0,.83-.94,2,2,0,0,0,.44-1.15"/><path class="cls-1" d="M35.38,49.8c-.4-.13-.79-.24-1.19-.33a2.58,2.58,0,0,0-1.2-.06,3,3,0,0,0-.93.77c-.28.3-.55.61-.82.92a21.36,21.36,0,0,0-2.65,4.09,4.59,4.59,0,0,0-.5,2.23A2.67,2.67,0,0,0,29,59.3a12.81,12.81,0,0,0,4.21,2.05,18.5,18.5,0,0,1,2.34,1c.66.38,1.28.52,1.73.07a4,4,0,0,0,.94-2A15.64,15.64,0,0,0,38.59,58a26.56,26.56,0,0,0-.11-4.88,3.69,3.69,0,0,0-1-2.18,5.24,5.24,0,0,0-2.13-1.17m0,0a5.32,5.32,0,0,1,2.15,1.14,3.94,3.94,0,0,1,1.09,2.19,27,27,0,0,1,.47,4.92,16.16,16.16,0,0,1-.17,2.5,4.65,4.65,0,0,1-1,2.47,2,2,0,0,1-1.44.58,3.35,3.35,0,0,1-1.36-.42,18.67,18.67,0,0,0-2.22-.89,11.88,11.88,0,0,1-4.48-2.38,3.43,3.43,0,0,1-1-2.48A5.22,5.22,0,0,1,28.15,55a22.29,22.29,0,0,1,3-4c.28-.3.57-.6.86-.88a3.27,3.27,0,0,1,1-.76,2.52,2.52,0,0,1,1.22.09c.4.09.8.21,1.19.34"/><path class="cls-1" d="M26.43,51.35c-.72,1.27-1.34,2.58-2,3.88A20.07,20.07,0,0,1,22.1,59l-.11.13-.15-.1a9.72,9.72,0,0,1-2.66-3.06c-.71-1.13-1.32-2.32-1.94-3.47a9.32,9.32,0,0,1-.82-1.91,4.21,4.21,0,0,1-.11-2.21,3.12,3.12,0,0,1,1.36-1.84,16.29,16.29,0,0,1,1.81-.92,31.81,31.81,0,0,1,3.62-1.72,4.82,4.82,0,0,1,2.07-.28,3.61,3.61,0,0,1,1.89.86A6.43,6.43,0,0,1,28.34,46a2.43,2.43,0,0,1,.19,2c-.46,1.28-1.47,2.2-2.1,3.37m0,0c.61-1.17,1.64-2.12,2-3.4a2.17,2.17,0,0,0-.27-1.84,6.51,6.51,0,0,0-1.32-1.4,3.09,3.09,0,0,0-1.72-.64,4.3,4.3,0,0,0-1.81.38c-1.17.5-2.24,1.28-3.43,1.92-.59.33-1.2.6-1.68.93a2.16,2.16,0,0,0-.94,1.28A5.5,5.5,0,0,0,18.05,52c.6,1.2,1.12,2.4,1.73,3.56a9.23,9.23,0,0,0,2.28,3.07l-.26,0a16.43,16.43,0,0,0,2.53-3.51c.73-1.26,1.36-2.58,2.1-3.83"/><polygon class="cls-1" points="1.61 80.41 1.61 71.47 0 71.47 0 68.9 1.61 68.9 1.61 65.66 4.84 65.66 4.84 68.9 8.47 68.9 8.47 71.47 4.84 71.47 4.84 80.41 1.61 80.41"/><path class="cls-1" d="M9.19,80.41V73.75c0-3.44,1.5-4.85,5.39-4.85h2.06v2.57h-2c-1.76,0-2.31.47-2.31,2.3v6.64Z"/><path class="cls-1" d="M18.88,80.41c-3.31,0-4.21-1.17-4.21-3V76.29c0-1.93.81-3,4-3h8.51V73c0-1.46-.55-1.85-1.95-1.85H22.08V68.9h3.15c3.67,0,5.11,1.32,5.11,4.25V76c0,3.34-1.16,4.46-5.24,4.46Zm8.3-5.2H19c-.75,0-1.19.25-1.19,1.17v.78c0,.81.49,1.09,1.29,1.09h5.95c1.48,0,2.12-.34,2.12-2.06Z"/><path class="cls-1" d="M37,80.15c-4.26,0-5.52-1.32-5.52-5V73.63c0-3.67,1.26-5,5.52-5h8.33v2.72H37.15c-2,0-2.46.48-2.46,2.37v1.36c0,1.83.49,2.38,2.46,2.38h8.24v2.68Zm-.1,4.67.47-4.12h2.86l-1.14,4.12Z"/><path class="cls-1" d="M52.69,80.43c-4.27,0-5.52-1.31-5.52-5V73.91c0-3.67,1.25-5,5.52-5h3.84c4.29,0,5.55,1.32,5.55,5v1.52c0,3.66-1.26,5-5.55,5ZM58.91,74c0-2-.51-2.38-2.8-2.38h-3c-2.25,0-2.79.43-2.79,2.38v1.36c0,1.91.54,2.38,2.79,2.38h3c2.29,0,2.8-.47,2.8-2.38Z"/><path class="cls-1" d="M77.7,77.4c0,2.27-.66,3-3.89,3H63.92V78h9.49c.85,0,1.15-.23,1.15-1v-.38c0-.85-.3-1-1.07-1H67c-2.61,0-3.1-1-3.1-3v-.87c0-2,.74-2.76,3.2-2.76h4.38v2.4H67.91c-.62,0-.87.19-.87.78v.53c0,.64.25.83.81.83h6.24c3,0,3.61.89,3.61,3.31Z"/><path class="cls-1" d="M41.54,89.52a1.48,1.48,0,0,1-.69-.45,1.1,1.1,0,0,1-.23-.71,1,1,0,0,1,.23-.66,2.88,2.88,0,0,1,.8-.61,2.34,2.34,0,0,1-.73-.87A2.89,2.89,0,0,1,40.68,85a2.57,2.57,0,0,1,.76-2,2.87,2.87,0,0,1,2.07-.72,3.12,3.12,0,0,1,1,.15,2.41,2.41,0,0,1,.81.42,3.41,3.41,0,0,1,.74-.51,1.47,1.47,0,0,1,.67-.16h.19v1h-.22a3,3,0,0,0-.6,0,.64.64,0,0,0-.3.18,2.25,2.25,0,0,1,.33.68,3,3,0,0,1,.1.83,2.58,2.58,0,0,1-.74,1.94,2.81,2.81,0,0,1-2,.72,3.75,3.75,0,0,1-.56-.05l-.58-.12a1.32,1.32,0,0,0-.48.3.56.56,0,0,0-.16.39c0,.33.48.52,1.45.59l.74.06a5.15,5.15,0,0,1,2.38.61,1.66,1.66,0,0,1,.64,1.45A1.68,1.68,0,0,1,46,92.39a5.12,5.12,0,0,1-2.58.53,4.72,4.72,0,0,1-2.36-.47,1.5,1.5,0,0,1-.79-1.39,1.37,1.37,0,0,1,.3-.91,2.4,2.4,0,0,1,1-.63m-.25,1.37a1,1,0,0,0,.54.87,3.46,3.46,0,0,0,1.57.29,4.51,4.51,0,0,0,1.84-.28.93.93,0,0,0,.6-.88.91.91,0,0,0-.6-.85,4.77,4.77,0,0,0-1.85-.27,3.42,3.42,0,0,0-1.55.29.92.92,0,0,0-.55.83m.39-6a1.9,1.9,0,0,0,.47,1.37,2,2,0,0,0,2.6,0A1.71,1.71,0,0,0,45.22,85a1.68,1.68,0,0,0-1.82-1.82,1.7,1.7,0,0,0-1.25.47,1.72,1.72,0,0,0-.47,1.26"/><path class="cls-1" d="M53,88l.78.49a3.07,3.07,0,0,1-1.2,1.35,3.61,3.61,0,0,1-1.86.44,2.75,2.75,0,0,1-2.29-1,5.8,5.8,0,0,1,0-5.86,2.6,2.6,0,0,1,2.19-1,2.64,2.64,0,0,1,2.2,1,4.59,4.59,0,0,1,.78,2.84v.32H48.7v.25a2.88,2.88,0,0,0,.57,1.89,1.86,1.86,0,0,0,1.52.7A2.3,2.3,0,0,0,52.07,89a2.64,2.64,0,0,0,.9-1m-4.25-2.37h3.73a2.8,2.8,0,0,0-.51-1.73,1.6,1.6,0,0,0-1.33-.63,1.64,1.64,0,0,0-1.35.61,3,3,0,0,0-.54,1.75"/><path class="cls-1" d="M54.38,88.82l.85-.68a3.32,3.32,0,0,0,1,.93,2.43,2.43,0,0,0,1.19.31A1.66,1.66,0,0,0,58.53,89a1.16,1.16,0,0,0,.42-.94c0-.58-.59-1-1.76-1.37l-.6-.18a3.31,3.31,0,0,1-1.46-.81,1.83,1.83,0,0,1-.47-1.29,1.94,1.94,0,0,1,.64-1.51A2.38,2.38,0,0,1,57,82.34a3.64,3.64,0,0,1,1.53.31,3.47,3.47,0,0,1,1.22,1l-.7.7a3.24,3.24,0,0,0-.93-.83A2.17,2.17,0,0,0,57,83.22a1.38,1.38,0,0,0-.94.3,1.11,1.11,0,0,0-.25,1.27.84.84,0,0,0,.28.34,4.74,4.74,0,0,0,1.31.5q.47.12.72.21a3.13,3.13,0,0,1,1.42.82A2,2,0,0,1,60,88a2.1,2.1,0,0,1-.74,1.67,3,3,0,0,1-2,.62,3.58,3.58,0,0,1-1.66-.38,3.09,3.09,0,0,1-1.23-1.06"/><path class="cls-1" d="M64.71,89.21v.89a2.08,2.08,0,0,1-.52.12,3.82,3.82,0,0,1-.61,0,2,2,0,0,1-1.31-.37,1.4,1.4,0,0,1-.44-1.12V83.38H60.69v-.91h1.14V80H63v2.47h1.74v.91H63v4.91a1.26,1.26,0,0,0,.2.85,1.28,1.28,0,0,0,.8.19,3.16,3.16,0,0,0,.72-.11Z"/><path class="cls-1" d="M52.61,31.11A13.8,13.8,0,0,1,39.33,44.89a13.74,13.74,0,0,1-13.15-8.33,14.55,14.55,0,0,1-1.12-5.45,14.21,14.21,0,0,1,1.12-5.45,13.76,13.76,0,0,1,13.15-8.32A13.8,13.8,0,0,1,52.61,31.11m0,0a13.32,13.32,0,0,0-1-5.06,12.75,12.75,0,0,0-12.23-7.71,12.79,12.79,0,0,0,0,25.55,12.75,12.75,0,0,0,12.23-7.71,13.37,13.37,0,0,0,1-5.07"/><path class="cls-1" d="M48.87,30.87a9.6,9.6,0,1,1-2.68-6.66,9.59,9.59,0,0,1,2.68,6.66m0,0a9.07,9.07,0,0,0-9.34-9.09,9.12,9.12,0,0,0-8.85,9.09A9.12,9.12,0,0,0,39.53,40a9.08,9.08,0,0,0,9.34-9.1"/><path class="cls-1" d="M46.13,31.11A6.87,6.87,0,0,1,39.53,38a6.86,6.86,0,1,1,0-13.71,6.85,6.85,0,0,1,6.6,6.85m0,0a6.35,6.35,0,0,0-11-4.36,6.36,6.36,0,0,0,4.37,10.72,6.35,6.35,0,0,0,6.6-6.36"/></g></g></svg>